<?xml version="1.0" standalone="no"?>
<!DOCTYPE svg PUBLIC "-//W3C//DTD SVG 20010904//EN"
 "http://www.w3.org/TR/2001/REC-SVG-20010904/DTD/svg10.dtd">
<svg version="1.0" xmlns="http://www.w3.org/2000/svg"
 width="2000.000000pt" height="2000.000000pt" viewBox="0 0 2000.000000 2000.000000"
 preserveAspectRatio="xMidYMid meet">

<g transform="translate(0.000000,2000.000000) scale(0.100000,-0.100000)"
fill="#000000" stroke="none">
<path d="M1850 14337 l0 -3343 350 -178 350 -177 2 3295 3 3296 575 -767 c748
-1000 3439 -4581 4359 -5803 l720 -955 1 -972 0 -971 344 -176 c189 -97 347
-176 350 -176 3 0 6 566 6 1258 l0 1258 -784 1044 c-432 575 -1063 1416 -1404
1870 -749 998 -2392 3180 -2680 3559 l-207 273 -480 245 c-264 134 -711 361
-992 504 l-513 260 0 -3344z"/>
<path d="M6090 16874 c0 -4 683 -916 1518 -2028 834 -1111 1679 -2238 1877
-2503 198 -265 362 -482 365 -482 7 0 1668 2223 1675 2240 3 10 -87 61 -303
170 l-308 157 -258 -342 c-142 -187 -380 -504 -530 -703 -149 -199 -273 -362
-276 -362 -3 0 -312 408 -686 907 -375 499 -909 1209 -1188 1579 l-507 672
-507 257 c-279 141 -589 299 -689 351 -101 52 -183 91 -183 87z"/>
<path d="M13037 12958 c-346 -458 -999 -1325 -1665 -2210 l-622 -827 0 -2120
0 -2121 -120 0 -120 0 0 -590 0 -590 590 0 590 0 0 590 0 590 -120 0 -120 0 0
2005 0 2005 1211 1615 c667 889 1210 1617 1208 1619 -2 1 -142 73 -311 160
l-307 156 -214 -282z"/>
<path d="M16970 8330 l0 -590 120 0 120 0 0 -2277 0 -2278 350 -178 350 -178
0 2456 0 2455 120 0 120 0 0 590 0 590 -590 0 -590 0 0 -590z"/>
</g>
</svg>
